<?xml version="1.0" standalone="no"?>
<!DOCTYPE svg PUBLIC "-//W3C//DTD SVG 20010904//EN"
 "http://www.w3.org/TR/2001/REC-SVG-20010904/DTD/svg10.dtd">
<svg version="1.0" xmlns="http://www.w3.org/2000/svg"
 width="512.000000pt" height="512.000000pt" viewBox="0 0 512.000000 512.000000"
 preserveAspectRatio="xMidYMid meet">

<g transform="translate(0.000000,512.000000) scale(0.100000,-0.100000)"
fill="#000000" stroke="none">
<path d="M1562 4620 c-106 -28 -187 -75 -268 -155 -224 -223 -231 -574 -17
-806 66 -71 152 -130 224 -154 l49 -17 0 -928 0 -928 -49 -17 c-119 -39 -254
-161 -317 -287 -64 -128 -79 -264 -44 -402 28 -110 74 -190 155 -271 180 -180
440 -224 671 -114 94 45 218 168 262 259 43 88 62 169 62 262 0 104 -15 168
-61 265 -57 119 -146 207 -268 265 l-91 43 0 86 c0 47 5 101 12 120 25 75 94
144 168 167 19 7 253 39 520 72 267 33 510 65 540 71 159 31 324 157 394 301
50 102 66 175 66 294 l0 102 49 17 c72 24 158 83 224 154 168 182 203 437 90
663 -46 90 -153 201 -240 246 -76 40 -198 72 -273 72 -268 0 -509 -186 -575
-445 -19 -75 -19 -213 0 -285 45 -169 157 -306 314 -381 l91 -44 0 -86 c0 -47
-5 -101 -12 -120 -25 -75 -94 -144 -168 -167 -19 -7 -253 -39 -520 -72 -524
-65 -571 -72 -637 -101 l-43 -18 0 602 0 602 90 42 c121 58 213 148 269 266
46 97 61 160 61 265 0 93 -19 174 -62 262 -44 91 -168 214 -262 259 -129 62
-270 76 -404 41z m231 -316 c64 -22 130 -82 157 -145 17 -42 21 -66 18 -118
-5 -77 -25 -125 -75 -174 -49 -50 -97 -70 -174 -75 -243 -15 -372 279 -198
449 76 74 174 97 272 63z m1706 -640 c94 -28 167 -121 178 -228 11 -109 -56
-222 -158 -266 -42 -17 -66 -21 -118 -18 -77 5 -125 25 -174 75 -50 49 -70 97
-75 174 -5 85 23 154 85 209 76 67 161 84 262 54z m-1678 -2358 c47 -22 103
-78 125 -125 29 -58 30 -157 4 -220 -44 -102 -157 -169 -266 -158 -219 23
-319 271 -177 437 55 64 121 92 208 88 40 -2 86 -11 106 -22z"/>
</g>
</svg>
