<?xml version="1.0" standalone="no"?>
<!DOCTYPE svg PUBLIC "-//W3C//DTD SVG 20010904//EN"
 "http://www.w3.org/TR/2001/REC-SVG-20010904/DTD/svg10.dtd">
<svg version="1.0" xmlns="http://www.w3.org/2000/svg"
 width="200.000000pt" height="200.000000pt" viewBox="0 0 200.000000 200.000000"
 preserveAspectRatio="xMidYMid meet">

<g transform="translate(0.000000,200.000000) scale(0.100000,-0.100000)"
fill="#000000" stroke="none">
<path d="M515 1870 c-99 -14 -189 -82 -236 -176 l-24 -49 0 -580 c0 -571 0
-581 21 -626 51 -109 151 -178 274 -187 90 -6 115 1 130 38 24 58 -20 90 -127
90 -54 0 -90 18 -131 65 -38 43 -46 69 -40 140 6 66 42 119 102 146 38 17 75
19 589 19 l547 0 0 -185 0 -185 -54 0 c-58 0 -106 -13 -118 -33 -4 -7 -8 -24
-8 -39 0 -47 30 -58 157 -58 100 0 115 2 133 20 20 20 20 33 20 738 0 679 -1
719 -19 758 -25 54 -75 92 -141 104 -61 11 -997 12 -1075 0z m1087 -137 c17
-15 18 -42 18 -434 l0 -418 -567 -3 c-565 -3 -568 -3 -617 -25 -27 -13 -50
-23 -53 -23 -2 0 -2 181 -1 403 l3 404 29 37 c58 77 45 76 640 76 479 0 531
-2 548 -17z"/>
<path d="M863 623 c-48 -9 -53 -32 -53 -248 0 -165 3 -204 16 -223 25 -37 65
-28 156 32 l81 55 81 -55 c84 -56 122 -66 150 -38 14 13 16 48 16 227 0 117
-4 217 -8 224 -17 26 -68 33 -240 32 -97 -1 -187 -4 -199 -6z m327 -218 c0
-52 -3 -95 -6 -95 -3 0 -25 14 -49 30 -47 32 -89 38 -120 17 -11 -8 -32 -22
-47 -32 l-28 -17 0 96 0 96 125 0 125 0 0 -95z"/>
</g>
</svg>
