<?xml version="1.0" standalone="no"?>
<!DOCTYPE svg PUBLIC "-//W3C//DTD SVG 20010904//EN"
 "http://www.w3.org/TR/2001/REC-SVG-20010904/DTD/svg10.dtd">
<svg version="1.0" xmlns="http://www.w3.org/2000/svg"
 width="512.000000pt" height="512.000000pt" viewBox="0 0 512.000000 512.000000"
 preserveAspectRatio="xMidYMid meet">

<g transform="translate(0.000000,512.000000) scale(0.100000,-0.100000)"
fill="#000000" stroke="none">
<path d="M2465 5018 c-94 -18 -174 -64 -260 -152 -79 -80 -83 -88 -365 -606
l-285 -525 -560 -102 c-308 -55 -585 -109 -615 -118 -268 -84 -421 -318 -369
-567 16 -76 70 -184 126 -249 26 -31 228 -231 448 -444 347 -337 400 -392 397
-414 -2 -14 -44 -271 -94 -571 -103 -618 -110 -698 -70 -826 25 -83 86 -178
145 -230 102 -89 263 -134 402 -115 99 14 123 24 687 266 l507 217 538 -231
c535 -230 620 -260 724 -261 166 0 326 86 414 225 57 88 70 143 70 290 -1 127
-4 144 -119 694 -113 544 -117 565 -99 581 10 10 198 180 418 379 220 200 422
386 449 414 273 288 196 676 -163 822 -43 18 -241 58 -639 131 -317 58 -580
109 -583 112 -4 4 -127 230 -274 502 -147 272 -287 523 -311 557 -124 175
-321 259 -519 221z m383 -1373 l281 -520 546 -99 c300 -55 544 -103 543 -108
-2 -4 -199 -185 -438 -403 -239 -217 -439 -401 -443 -408 -5 -7 46 -273 117
-616 69 -333 124 -606 123 -607 -1 -1 -230 96 -509 216 l-507 218 -523 -223
c-288 -123 -524 -222 -525 -221 -2 1 42 276 97 611 55 334 100 611 100 615 0
4 -187 188 -415 409 -228 222 -415 406 -415 409 0 4 248 52 550 107 303 55
555 102 560 105 5 3 135 238 290 523 155 285 283 517 285 515 1 -2 128 -237
283 -523z"/>
</g>
</svg>
