<?xml version="1.0" standalone="no"?>
<!DOCTYPE svg PUBLIC "-//W3C//DTD SVG 20010904//EN"
 "http://www.w3.org/TR/2001/REC-SVG-20010904/DTD/svg10.dtd">
<svg version="1.0" xmlns="http://www.w3.org/2000/svg"
 width="1250.000000pt" height="1250.000000pt" viewBox="0 0 1250.000000 1250.000000"
 preserveAspectRatio="xMidYMid meet">

<g transform="translate(0.000000,1250.000000) scale(0.100000,-0.100000)"
fill="#000000" stroke="none">
<path d="M6080 10448 c-588 -20 -1160 -170 -1700 -444 -650 -330 -1187 -809
-1585 -1414 -171 -261 -290 -488 -398 -760 -142 -358 -224 -685 -274 -1090
-25 -207 -25 -714 1 -925 99 -819 398 -1534 910 -2175 128 -161 445 -477 606
-606 670 -535 1417 -836 2265 -914 170 -15 552 -13 736 5 504 48 1027 198
1469 420 123 62 137 60 267 -21 490 -307 1066 -479 1635 -487 134 -2 148 0
175 19 15 11 33 36 40 55 15 44 18 1435 3 1490 -16 56 -39 69 -172 99 -139 32
-311 91 -339 116 -11 10 -24 34 -31 55 -13 45 -7 58 121 269 298 489 493 1069
567 1685 25 206 26 719 1 915 -67 533 -198 973 -421 1420 -135 270 -286 504
-485 755 -127 160 -463 496 -631 629 -463 369 -993 635 -1559 782 -389 101
-754 138 -1201 122z m518 -1662 c427 -64 821 -227 1160 -480 763 -571 1141
-1539 967 -2479 -145 -785 -643 -1451 -1351 -1805 -226 -113 -489 -198 -734
-237 -159 -26 -531 -31 -690 -11 -663 87 -1239 408 -1653 921 -118 146 -209
289 -297 470 -166 338 -246 656 -257 1026 -13 433 71 827 256 1205 389 792
1137 1312 2021 1404 119 12 455 4 578 -14z"/>
</g>
</svg>
