<?xml version="1.0" standalone="no"?>
<!DOCTYPE svg PUBLIC "-//W3C//DTD SVG 20010904//EN"
 "http://www.w3.org/TR/2001/REC-SVG-20010904/DTD/svg10.dtd">
<svg version="1.0" xmlns="http://www.w3.org/2000/svg"
 width="1250.000000pt" height="1250.000000pt" viewBox="0 0 1250.000000 1250.000000"
 preserveAspectRatio="xMidYMid meet">

<g transform="translate(0.000000,1250.000000) scale(0.100000,-0.100000)"
fill="#000000" stroke="none">
<path d="M2952 10365 c-215 -39 -385 -127 -537 -280 -129 -128 -214 -275 -264
-454 l-26 -96 0 -3280 0 -3280 26 -96 c99 -356 362 -619 717 -717 l97 -27
3280 0 3280 0 97 27 c355 98 618 361 716 716 l27 97 0 3280 0 3280 -27 97
c-98 355 -361 618 -717 717 l-96 26 -3250 2 c-2657 1 -3263 -1 -3323 -12z
m2816 -1797 l2 -918 1848 0 c1016 0 1853 -4 1860 -8 10 -7 12 -105 10 -458
l-3 -449 -1857 -3 -1858 -2 -2 -1858 -3 -1857 -449 -3 c-353 -2 -451 0 -458
10 -4 7 -8 844 -8 1860 l0 1848 -917 2 -918 3 -3 449 c-2 353 0 451 10 458 7
4 421 8 921 8 l907 0 0 904 c0 497 3 912 6 920 6 15 52 16 458 14 l451 -3 3
-917z"/>
</g>
</svg>
