<?xml version="1.0" standalone="no"?>
<!DOCTYPE svg PUBLIC "-//W3C//DTD SVG 20010904//EN"
 "http://www.w3.org/TR/2001/REC-SVG-20010904/DTD/svg10.dtd">
<svg version="1.0" xmlns="http://www.w3.org/2000/svg"
 width="1250.000000pt" height="1250.000000pt" viewBox="0 0 1250.000000 1250.000000"
 preserveAspectRatio="xMidYMid meet">

<g transform="translate(0.000000,1250.000000) scale(0.100000,-0.100000)"
fill="#000000" stroke="none">
<path d="M2952 10365 c-215 -39 -385 -127 -537 -280 -129 -128 -214 -275 -264
-454 l-26 -96 0 -3280 0 -3280 26 -96 c99 -356 362 -619 717 -717 l97 -27
3280 0 3280 0 97 27 c355 98 618 361 716 716 l27 97 0 3280 0 3280 -27 97
c-98 355 -361 618 -717 717 l-96 26 -3250 2 c-2657 1 -3263 -1 -3323 -12z
m5463 -2091 c11 -7 38 -20 59 -30 53 -26 138 -110 166 -164 78 -153 62 -314
-46 -456 -35 -46 -117 -98 -193 -123 -64 -21 -74 -21 -1136 -21 -1056 0 -1073
0 -1135 21 -250 82 -357 334 -244 574 22 48 117 144 165 166 65 31 84 38 109
42 14 3 522 4 1130 3 806 -1 1110 -4 1125 -12z m-2569 -1165 c30 -11 76 -38
102 -59 48 -38 122 -136 122 -162 0 -8 6 -20 13 -26 8 -9 12 -48 12 -125 -1
-189 40 -138 -692 -869 -433 -432 -642 -633 -672 -648 -69 -34 -171 -52 -239
-41 -72 11 -137 36 -182 70 -19 14 -179 170 -356 346 -282 282 -324 328 -351
385 -44 91 -54 158 -38 245 7 39 16 79 20 90 19 47 89 138 128 166 39 28 59
38 130 68 36 14 198 14 234 0 98 -40 126 -62 289 -221 93 -92 174 -168 180
-168 5 0 214 205 464 454 480 480 500 497 608 516 66 12 163 3 228 -21z m2539
-463 c75 -20 127 -50 184 -106 161 -159 160 -415 -1 -572 -56 -54 -109 -85
-183 -104 -62 -17 -1343 -20 -1413 -4 -111 26 -221 111 -269 208 -116 237 5
509 257 578 68 19 1355 19 1425 0z m16 -1637 c143 -47 238 -146 276 -289 53
-198 -69 -418 -267 -481 -62 -20 -2272 -21 -2292 -1 -6 6 -18 12 -26 12 -20 0
-126 75 -156 111 -57 68 -96 174 -96 264 0 175 112 325 287 384 56 19 90 20
1134 20 1067 1 1076 1 1140 -20z"/>
</g>
</svg>
